solid OpenSCAD_Model
  facet normal 0 0 1
    outer loop
      vertex -11.549999999999999 -8.549999999999999 1.5
      vertex -2.0790000036358833 -6.4125 1.5
      vertex -5.774999998509884 0.42750000357627904 1.5
    endloop
  endfacet
  facet normal -1 0 0
    outer loop
      vertex -11.549999999999999 -8.549999999999999 0
      vertex -11.549999999999999 -8.549999999999999 1.5
      vertex -11.549999999999999 8.549999999999999 1.5
    endloop
  endfacet
  facet normal 0 -1 0
    outer loop
      vertex -11.549999999999999 -8.549999999999999 0
      vertex 11.549999999999999 -8.549999999999999 1.5
      vertex -11.549999999999999 -8.549999999999999 1.5
    endloop
  endfacet
  facet normal 0 0 1
    outer loop
      vertex -11.549999999999999 -8.549999999999999 1.5
      vertex 2.0790000036358833 -6.4125 1.5
      vertex -2.0790000036358833 -6.4125 1.5
    endloop
  endfacet
  facet normal 0 0 1
    outer loop
      vertex -2.0790000036358833 0.42750000357627904 1.5
      vertex -5.774999998509884 0.42750000357627904 1.5
      vertex -2.0790000036358833 -6.4125 1.5
    endloop
  endfacet
  facet normal -1 0 0
    outer loop
      vertex -11.549999999999999 -8.549999999999999 0
      vertex -11.549999999999999 8.549999999999999 1.5
      vertex -11.549999999999999 8.549999999999999 0
    endloop
  endfacet
  facet normal 0 0 -1
    outer loop
      vertex -11.549999999999999 -8.549999999999999 0
      vertex -11.549999999999999 8.549999999999999 0
      vertex 11.549999999999999 8.549999999999999 0
    endloop
  endfacet
  facet normal 0 1 0
    outer loop
      vertex -11.549999999999999 8.549999999999999 0
      vertex -11.549999999999999 8.549999999999999 1.5
      vertex 11.549999999999999 8.549999999999999 0
    endloop
  endfacet
  facet normal 0 0 1
    outer loop
      vertex -11.549999999999999 -8.549999999999999 1.5
      vertex -5.774999998509884 0.42750000357627904 1.5
      vertex -11.549999999999999 8.549999999999999 1.5
    endloop
  endfacet
  facet normal 0 0 1
    outer loop
      vertex -11.549999999999999 8.549999999999999 1.5
      vertex -5.774999998509884 0.42750000357627904 1.5
      vertex 0 6.412500002980233 1.5
    endloop
  endfacet
  facet normal 0 -1 0
    outer loop
      vertex -11.549999999999999 -8.549999999999999 0
      vertex 11.549999999999999 -8.549999999999999 0
      vertex 11.549999999999999 -8.549999999999999 1.5
    endloop
  endfacet
  facet normal 0 0 -1
    outer loop
      vertex -11.549999999999999 -8.549999999999999 0
      vertex 11.549999999999999 8.549999999999999 0
      vertex 11.549999999999999 -8.549999999999999 0
    endloop
  endfacet
  facet normal 1 0 0
    outer loop
      vertex 11.549999999999999 -8.549999999999999 0
      vertex 11.549999999999999 8.549999999999999 0
      vertex 11.549999999999999 -8.549999999999999 1.5
    endloop
  endfacet
  facet normal 0 0 1
    outer loop
      vertex -11.549999999999999 -8.549999999999999 1.5
      vertex 11.549999999999999 -8.549999999999999 1.5
      vertex 2.0790000036358833 -6.4125 1.5
    endloop
  endfacet
  facet normal 0 0 1
    outer loop
      vertex 2.0790000036358833 -6.4125 1.5
      vertex 5.774999998509884 0.42750000357627904 1.5
      vertex 2.0790000036358833 0.42750000357627904 1.5
    endloop
  endfacet
  facet normal 0 0 1
    outer loop
      vertex 11.549999999999999 -8.549999999999999 1.5
      vertex 5.774999998509884 0.42750000357627904 1.5
      vertex 2.0790000036358833 -6.4125 1.5
    endloop
  endfacet
  facet normal 0 1 0
    outer loop
      vertex -11.549999999999999 8.549999999999999 1.5
      vertex 11.549999999999999 8.549999999999999 1.5
      vertex 11.549999999999999 8.549999999999999 0
    endloop
  endfacet
  facet normal 0 0 1
    outer loop
      vertex -11.549999999999999 8.549999999999999 1.5
      vertex 0 6.412500002980233 1.5
      vertex 11.549999999999999 8.549999999999999 1.5
    endloop
  endfacet
  facet normal 0 0 1
    outer loop
      vertex 11.549999999999999 8.549999999999999 1.5
      vertex 0 6.412500002980233 1.5
      vertex 5.774999998509884 0.42750000357627904 1.5
    endloop
  endfacet
  facet normal 1 0 0
    outer loop
      vertex 11.549999999999999 -8.549999999999999 1.5
      vertex 11.549999999999999 8.549999999999999 0
      vertex 11.549999999999999 8.549999999999999 1.5
    endloop
  endfacet
  facet normal 0 0 1
    outer loop
      vertex 11.549999999999999 -8.549999999999999 1.5
      vertex 11.549999999999999 8.549999999999999 1.5
      vertex 5.774999998509884 0.42750000357627904 1.5
    endloop
  endfacet
  facet normal 0 1 0
    outer loop
      vertex -2.0790000036358833 -6.4125 0.9
      vertex -2.0790000036358833 -6.4125 1.5
      vertex 2.0790000036358833 -6.4125 0.9
    endloop
  endfacet
  facet normal 0 0 1
    outer loop
      vertex -2.0790000036358833 -6.4125 0.9
      vertex 2.0790000036358833 -6.4125 0.9
      vertex -2.0790000036358833 0.42750000357627904 0.9
    endloop
  endfacet
  facet normal 1 0 0
    outer loop
      vertex -2.0790000036358833 -6.4125 0.9
      vertex -2.0790000036358833 0.42750000357627904 0.9
      vertex -2.0790000036358833 0.42750000357627904 1.5
    endloop
  endfacet
  facet normal 1 0 0
    outer loop
      vertex -2.0790000036358833 -6.4125 0.9
      vertex -2.0790000036358833 0.42750000357627904 1.5
      vertex -2.0790000036358833 -6.4125 1.5
    endloop
  endfacet
  facet normal 0 1 0
    outer loop
      vertex -5.774999998509884 0.42750000357627904 0.9
      vertex -5.774999998509884 0.42750000357627904 1.5
      vertex -2.0790000036358833 0.42750000357627904 0.9
    endloop
  endfacet
  facet normal 0 0 1
    outer loop
      vertex -5.774999998509884 0.42750000357627904 0.9
      vertex -2.0790000036358833 0.42750000357627904 0.9
      vertex 0 6.412500002980233 0.9
    endloop
  endfacet
  facet normal 0 1 0
    outer loop
      vertex -2.0790000036358833 0.42750000357627904 0.9
      vertex -5.774999998509884 0.42750000357627904 1.5
      vertex -2.0790000036358833 0.42750000357627904 1.5
    endloop
  endfacet
  facet normal 0.7196189620274509 -0.6943691737761218 0
    outer loop
      vertex -5.774999998509884 0.42750000357627904 0.9
      vertex 0 6.412500002980233 1.5
      vertex -5.774999998509884 0.42750000357627904 1.5
    endloop
  endfacet
  facet normal 0.7196189620274509 -0.6943691737761218 0
    outer loop
      vertex -5.774999998509884 0.42750000357627904 0.9
      vertex 0 6.412500002980233 0.9
      vertex 0 6.412500002980233 1.5
    endloop
  endfacet
  facet normal 0 1 0
    outer loop
      vertex 2.0790000036358833 -6.4125 0.9
      vertex -2.0790000036358833 -6.4125 1.5
      vertex 2.0790000036358833 -6.4125 1.5
    endloop
  endfacet
  facet normal -1 0 0
    outer loop
      vertex 2.0790000036358833 -6.4125 0.9
      vertex 2.0790000036358833 -6.4125 1.5
      vertex 2.0790000036358833 0.42750000357627904 0.9
    endloop
  endfacet
  facet normal 0 0 1
    outer loop
      vertex -2.0790000036358833 0.42750000357627904 0.9
      vertex 2.0790000036358833 -6.4125 0.9
      vertex 2.0790000036358833 0.42750000357627904 0.9
    endloop
  endfacet
  facet normal -1 0 0
    outer loop
      vertex 2.0790000036358833 0.42750000357627904 0.9
      vertex 2.0790000036358833 -6.4125 1.5
      vertex 2.0790000036358833 0.42750000357627904 1.5
    endloop
  endfacet
  facet normal 0 0 1
    outer loop
      vertex -2.0790000036358833 0.42750000357627904 0.9
      vertex 2.0790000036358833 0.42750000357627904 0.9
      vertex 0 6.412500002980233 0.9
    endloop
  endfacet
  facet normal 0 0 1
    outer loop
      vertex 2.0790000036358833 0.42750000357627904 0.9
      vertex 5.774999998509884 0.42750000357627904 0.9
      vertex 0 6.412500002980233 0.9
    endloop
  endfacet
  facet normal 0 1 0
    outer loop
      vertex 2.0790000036358833 0.42750000357627904 0.9
      vertex 2.0790000036358833 0.42750000357627904 1.5
      vertex 5.774999998509884 0.42750000357627904 0.9
    endloop
  endfacet
  facet normal -0.7196189620274509 -0.6943691737761218 0
    outer loop
      vertex 0 6.412500002980233 0.9
      vertex 5.774999998509884 0.42750000357627904 0.9
      vertex 5.774999998509884 0.42750000357627904 1.5
    endloop
  endfacet
  facet normal 0 1 0
    outer loop
      vertex 5.774999998509884 0.42750000357627904 0.9
      vertex 2.0790000036358833 0.42750000357627904 1.5
      vertex 5.774999998509884 0.42750000357627904 1.5
    endloop
  endfacet
  facet normal -0.7196189620274509 -0.6943691737761218 0
    outer loop
      vertex 0 6.412500002980233 0.9
      vertex 5.774999998509884 0.42750000357627904 1.5
      vertex 0 6.412500002980233 1.5
    endloop
  endfacet
endsolid OpenSCAD_Model
